<svg data-v-0dd9719b="" version="1.0" xmlns="http://www.w3.org/2000/svg" xmlns:xlink="http://www.w3.org/1999/xlink" width="100%" height="100%" viewBox="0 0 340.000000 250.000000" preserveAspectRatio="xMidYMid meet" color-interpolation-filters="sRGB" style="margin: auto;"> <rect data-v-0dd9719b="" x="0" y="0" width="100%" height="100%" fill="#fff" fill-opacity="1" class="background"></rect> <rect data-v-0dd9719b="" x="0" y="0" width="100%" height="100%" fill="url(#watermark)" fill-opacity="1" class="watermarklayer"></rect> <g data-v-0dd9719b="" fill="#333" class="icon-text-wrapper icon-svg-group iconsvg" transform="translate(48.95719909667969,92.9658317565918)"><g class="iconsvg-imagesvg" transform="translate(0,0)"><g><rect fill="#333" fill-opacity="0" stroke-width="2" x="0" y="0" width="60.00000000000001" height="64.06833956219968" class="image-rect"></rect> <svg x="0" y="0" width="60.00000000000001" height="64.06833956219968" filtersec="colorsb6492563204" class="image-svg-svg primary" style="overflow: visible;"><svg xmlns="http://www.w3.org/2000/svg" viewBox="-0.0014283348573371768 0 60.87229537963867 65"><g fill-opacity=".8"><path d="M60.87 37.88v.25c-.12 6.15-4.5 11.1-9.9 11.1a8.87 8.87 0 0 1-3.51-.74L14.07 15.35a10.67 10.67 0 0 1-1.59-5.62A10.9 10.9 0 0 1 18.58 0h31a11.41 11.41 0 0 1 11.29 11.55z" fill="#d13bfc"></path><path d="M30.77 10.62c10.92 0 19.77 9.54 19.77 21.3s-8.85 21.29-19.77 21.29S11 43.68 11 31.92s8.84-21.3 19.77-21.3z" fill="#02c0fa"></path><path d="M0 27.08v-.25c.12-6.15 4.51-11.09 9.9-11.09a8.82 8.82 0 0 1 3.51.73L46.8 49.62a10.63 10.63 0 0 1 1.59 5.61A10.92 10.92 0 0 1 42.3 65h-31A11.41 11.41 0 0 1 0 53.41z" fill="#5c36ee"></path></g></svg></svg> <!----></g></g> <g transform="translate(67,3.8258190155029297)"><g data-gra="path-name" fill-rule="" class="tp-name iconsvg-namesvg" transform="translate(0,0)"><g transform="scale(1)"><g><path d="M31.72 0.36L13.41 0.36Q12.24 0.36 11.52-0.36 10.8-1.08 10.8-2.25L10.8-2.25 10.8-25.79 4.18-25.79Q2.56-25.79 2.56-27.45L2.56-27.45Q2.56-29.07 4.18-29.07L4.18-29.07 10.8-29.07 10.8-35.68Q10.8-37.39 12.51-37.39L12.51-37.39Q14.22-37.39 14.22-35.68L14.22-35.68 14.22-29.07 30.82-29.07 30.82-35.64Q30.82-37.39 32.58-37.39L32.58-37.39Q34.34-37.39 34.34-35.64L34.34-35.64 34.34-29.07 40.86-29.07Q42.48-29.07 42.48-27.45L42.48-27.45Q42.48-25.79 40.86-25.79L40.86-25.79 34.34-25.79 34.34-2.25Q34.34-1.08 33.62-0.36 32.89 0.36 31.72 0.36L31.72 0.36ZM15.16-2.92L15.16-2.92 29.88-2.92Q30.82-2.92 30.82-3.87L30.82-3.87 30.82-12.78 14.22-12.78 14.22-3.87Q14.22-2.92 15.16-2.92ZM14.22-25.79L14.22-16.06 30.82-16.06 30.82-25.79 14.22-25.79ZM50.94 2.21Q49.63 3.55 48.51 2.61L48.51 2.61Q47.16 1.48 48.78-0.22L48.78-0.22Q50.85-2.88 51.66-6.39L51.66-6.39Q52.2-8.87 52.2-12.33L52.2-12.33 52.2-14.45Q52.2-15.97 53.73-15.97L53.73-15.97Q55.26-15.97 55.26-14.45L55.26-14.45 55.26-12.29Q55.26-7.51 54.36-4.27L54.36-4.27Q53.33-0.54 50.94 2.21L50.94 2.21ZM67.59 3.38L67.59 3.38Q65.92 3.38 65.92 1.75L65.92 1.75 65.92-18.18 53.82-18.18Q52.42-18.18 52.42-19.62L52.42-19.62Q52.42-21.02 53.82-21.02L53.82-21.02 65.92-21.02 65.92-24.97 49.27-24.97Q47.97-24.97 47.97-26.28 47.97-27.58 49.27-27.58L49.27-27.58 65.92-27.58 65.92-31.41 53.82-31.41Q52.42-31.41 52.42-32.85L52.42-32.85Q52.42-34.24 53.82-34.24L53.82-34.24 65.92-34.24 65.92-36Q65.92-37.62 67.59-37.62L67.59-37.62Q69.21-37.62 69.21-36L69.21-36 69.21-34.24 80.46-34.24Q81.63-34.24 82.35-33.52 83.07-32.8 83.07-31.63L83.07-31.63 83.07-27.58 85.95-27.58Q87.25-27.58 87.25-26.28 87.25-24.97 85.95-24.97L85.95-24.97 83.07-24.97 83.07-20.79Q83.07-19.62 82.35-18.9 81.63-18.18 80.46-18.18L80.46-18.18 69.21-18.18 69.21 1.75Q69.21 3.38 67.59 3.38ZM82.26 3.01L82.26 3.01Q80.69 3.01 80.69 1.48L80.69 1.48 80.69-14.4Q80.69-15.93 82.26-15.93L82.26-15.93Q83.79-15.93 83.79-14.4L83.79-14.4 83.79 1.48Q83.79 3.01 82.26 3.01ZM60.21-3.19Q59.63-1.93 58.27-2.65L58.27-2.65Q57.6-3.01 57.47-3.42 57.33-3.82 57.64-4.46L57.64-4.46Q58.99-7.6 60.08-12.69L60.08-12.69Q60.39-14.17 61.76-13.9 63.13-13.63 62.86-12.29L62.86-12.29Q62.46-10.21 61.65-7.29L61.65-7.29Q60.98-5.08 60.21-3.19L60.21-3.19ZM76.41-3.06Q74.92-2.65 74.61-4.05L74.61-4.05Q74.34-5.22 73.62-7.92L73.62-7.92Q72.72-10.89 72.18-12.31 71.64-13.72 73.22-13.99L73.22-13.99Q74.38-14.26 74.88-13.09L74.88-13.09Q76.63-8.5 77.58-4.54L77.58-4.54Q77.72-3.87 77.44-3.55 77.17-3.24 76.41-3.06L76.41-3.06ZM69.21-24.97L69.21-21.02 78.62-21.02Q79.56-21.02 79.56-21.96L79.56-21.96 79.56-24.97 69.21-24.97ZM69.21-31.41L69.21-27.58 79.56-27.58 79.56-30.46Q79.56-31.41 78.62-31.41L78.62-31.41 69.21-31.41ZM131.81 2.97Q130.28 3.69 129.69 2.21L129.69 2.21Q129.24 1.21 128.97 0.72L128.97 0.72Q126.59 0.9 121.77 1.26L121.77 1.26Q112.72 1.98 109.08 2.25L109.08 2.25Q108.31 2.29 108 1.93L108 1.93Q107.69 1.67 107.55 0.81L107.55 0.81Q107.41-0.09 107.69-0.54 107.95-0.99 108.81-1.03L108.81-1.03Q110.3-1.13 113.76-1.3L113.76-1.3Q116.59-1.44 118.08-1.53L118.08-1.53 118.08-8.32 111.87-8.32Q110.7-8.32 109.98-9.04 109.26-9.76 109.26-10.93L109.26-10.93 109.26-17.46Q109.26-18.63 109.98-19.35 110.7-20.07 111.87-20.07L111.87-20.07 118.08-20.07 118.08-23.49 112.86-23.49Q111.69-23.49 110.97-24.21 110.25-24.93 110.25-26.1L110.25-26.1 110.25-32.58Q110.25-33.75 110.97-34.47 111.69-35.19 112.86-35.19L112.86-35.19 126.72-35.19Q127.89-35.19 128.61-34.47 129.33-33.75 129.33-32.58L129.33-32.58 129.33-26.1Q129.33-24.93 128.61-24.21 127.89-23.49 126.72-23.49L126.72-23.49 121.19-23.49 121.19-20.07 127.89-20.07Q129.06-20.07 129.78-19.35 130.5-18.63 130.5-17.46L130.5-17.46 130.5-10.93Q130.5-9.76 129.78-9.04 129.06-8.32 127.89-8.32L127.89-8.32 121.19-8.32 121.19-1.75 127.39-2.16Q126.54-3.6 125.69-4.77L125.69-4.77Q124.74-6.17 126.31-6.84L126.31-6.84Q127.48-7.38 128.25-6.34L128.25-6.34Q131.13-2.43 132.75 1.17L132.75 1.17Q133.02 1.84 132.77 2.25 132.53 2.65 131.81 2.97L131.81 2.97ZM98.14 3.42L98.14 3.42Q96.3 3.38 95.98 1.71L95.98 1.71 95.94 1.62Q95.36 0.27 97.11 0.4L97.11 0.4Q98.41 0.49 100.08 0.49L100.08 0.49Q101.11 0.49 101.56 0L101.56 0Q102.78-1.3 103.45-11.03L103.45-11.03Q103.5-12.06 103.32-12.46L103.32-12.46Q103.14-12.78 102.64-12.78L102.64-12.78 95.72-12.78 95.67-12.51Q95.44-10.93 93.96-11.16L93.96-11.16Q93.15-11.25 92.83-11.56 92.52-11.88 92.66-12.64L92.66-12.64Q93.33-16.96 93.87-22.63L93.87-22.63Q93.96-23.71 94.68-24.39 95.4-25.06 96.53-25.06L96.53-25.06 102.47-25.06Q103.41-25.06 103.41-26.01L103.41-26.01 103.41-31.36Q103.41-32.31 102.47-32.31L102.47-32.31 94.41-32.31Q92.92-32.31 92.92-33.84L92.92-33.84Q92.92-35.32 94.41-35.32L94.41-35.32 103.86-35.32Q105.03-35.32 105.75-34.6 106.47-33.88 106.47-32.71L106.47-32.71 106.47-24.57Q106.47-23.4 105.75-22.68 105.03-21.96 103.86-21.96L103.86-21.96 96.8-21.96Q96.8-21.82 96.75-21.51L96.75-21.51Q96.34-17.64 96.08-15.79L96.08-15.79 104.27-15.79Q105.57-15.79 106.16-14.76L106.16-14.76Q106.83-13.59 106.65-10.8L106.65-10.8Q106.2-4.46 105.68-1.64 105.16 1.17 104.31 2.07L104.31 2.07Q103.28 3.19 101.39 3.38L101.39 3.38Q100.66 3.42 98.14 3.42ZM113.13-11.12L113.13-11.12 118.08-11.12 118.08-17.28 113.13-17.28Q112.19-17.28 112.19-16.34L112.19-16.34 112.19-12.06Q112.19-11.12 113.13-11.12ZM121.19-17.28L121.19-11.12 126.5-11.12Q127.44-11.12 127.44-12.06L127.44-12.06 127.44-16.34Q127.44-17.28 126.5-17.28L126.5-17.28 121.19-17.28ZM114.21-26.28L114.21-26.28 125.28-26.28Q126.22-26.28 126.22-27.22L126.22-27.22 126.22-31.41Q126.22-32.35 125.28-32.35L125.28-32.35 114.21-32.35Q113.27-32.35 113.27-31.41L113.27-31.41 113.27-27.22Q113.27-26.28 114.21-26.28ZM141.07 1.67Q139.41 2.83 138.28 1.48L138.28 1.48Q136.98-0.04 138.91-1.26L138.91-1.26Q144.04-4.72 146.79-10.44L146.79-10.44Q149.31-15.66 150.34-23.8L150.34-23.8 139.32-23.8Q137.75-23.8 137.75-25.38 137.75-26.95 139.32-26.95L139.32-26.95 150.71-26.95Q151.06-31.59 151.2-35.87L151.2-35.87Q151.29-37.71 153.04-37.62L153.04-37.62Q154.75-37.53 154.66-35.73L154.66-35.73Q154.44-30.64 154.08-26.95L154.08-26.95 175.55-26.95Q177.12-26.95 177.12-25.38 177.12-23.8 175.55-23.8L175.55-23.8 162-23.8 162-9.72Q167.09-14.35 170.5-20.07L170.5-20.07Q171.22-21.38 172.62-20.79L172.62-20.79Q174.19-20.11 173.34-18.63L173.34-18.63Q169.06-11.34 162-5.54L162-5.54 162-3.06Q162-1.71 162.47-1.33 162.94-0.94 164.56-0.94L164.56-0.94 172.53-0.94Q173.38-0.94 173.81-1.26 174.24-1.57 174.47-2.48L174.47-2.48Q174.6-3.82 175.09-4.68L175.09-4.68Q175.77-5.71 176.67-5.31L176.67-5.31Q177.3-5.04 177.53-4.05L177.53-4.05Q177.7-3.28 177.62-2.34L177.62-2.34Q177.21 0.22 176.15 1.19 175.09 2.16 172.75 2.16L172.75 2.16 164.25 2.16Q160.97 2.16 159.84 1.1 158.72 0.04 158.72-3.01L158.72-3.01Q155.7-0.9 152.69 0.63L152.69 0.63Q151.29 1.3 150.34 0.22L150.34 0.22Q149.04-1.3 151.02-2.25L151.02-2.25Q154.94-4.18 158.72-6.97L158.72-6.97 158.72-23.8 153.76-23.8Q152.55-14.63 149.81-8.82L149.81-8.82Q146.75-2.43 141.07 1.67L141.07 1.67ZM170.87-29.2Q169.74-28.17 168.82-29.11 167.89-30.06 166.14-31.45L166.14-31.45Q165.65-31.86 164.59-32.69 163.53-33.52 162.99-33.93L162.99-33.93Q161.78-34.83 162.99-35.91L162.99-35.91Q163.94-36.72 164.84-36.05L164.84-36.05Q168.62-33.34 171.05-31.14L171.05-31.14Q171.59-30.6 171.54-30.2L171.54-30.2Q171.45-29.79 170.87-29.2L170.87-29.2Z" transform="translate(-2.559999942779541, 37.62419509887695)"></path></g> <!----> <!----> <!----> <!----> <!----> <!----> <!----></g></g> <g data-gra="path-slogan" fill-rule="" class="tp-slogan iconsvg-slogansvg" fill="#333" transform="translate(29.08724594116211,47.04419708251953)"><!----> <!----> <g transform="scale(1, 1)"><g transform="scale(1)"><path d="M7.31-3.61L4.69-3.61L4.69-4.59L8.44-4.59L8.44 0L7.69 0L7.41-1.08Q6.42 0.09 4.59 0.14L4.59 0.14Q2.86 0.14 1.92-0.75L1.92-0.75Q0.52-2.06 0.56-4.36L0.56-4.36Q0.89-8.63 4.64-8.81L4.64-8.81Q7.83-8.63 8.30-6L8.30-6L7.17-6Q6.70-7.78 4.59-7.83L4.59-7.83Q1.92-7.64 1.78-4.31L1.78-4.31Q1.78-0.75 4.64-0.75L4.64-0.75Q5.67-0.75 6.42-1.31L6.42-1.31Q7.36-2.06 7.31-3.61L7.31-3.61ZM15.89 0L15.05-2.48L11.58-2.48L10.69 0L9.52 0L12.75-8.58L14.06-8.58L17.16 0L15.89 0ZM13.31-7.31L11.95-3.52L14.63-3.52L13.36-7.31L13.31-7.31ZM19.59-8.58L23.91-1.64L23.91-8.58L25.03-8.58L25.03 0L23.72 0L19.36-6.94L19.31-6.94L19.31 0L18.19 0L18.19-8.58L19.59-8.58ZM33.09-6.09L33.09-6.09L32.02-6.09Q31.92-7.73 29.86-7.83L29.86-7.83Q27.94-7.78 27.94-6.33L27.94-6.33Q27.94-5.39 28.97-5.25L28.97-5.25L31.41-4.69Q33.33-4.22 33.33-2.34L33.33-2.34Q33.28 0.05 29.95 0.14L29.95 0.14Q28.13 0.14 27.38-0.61L27.38-0.61Q26.44-1.31 26.48-2.77L26.48-2.77L27.61-2.77Q27.66-0.80 29.95-0.75L29.95-0.75Q32.20-0.80 32.25-2.20L32.25-2.20Q32.44-3.38 30.38-3.75L30.38-3.75L28.59-4.13Q26.77-4.64 26.77-6.19L26.77-6.19Q26.91-8.72 29.77-8.81L29.77-8.81Q33-8.81 33.09-6.09ZM40.45-3.19L40.45-8.58L41.63-8.58L41.63-3.05Q41.48 0.05 38.11 0.14L38.11 0.14Q34.97 0.05 34.83-2.86L34.83-2.86L34.83-8.58L36-8.58L36-3.19Q36.05-0.84 38.16-0.80L38.16-0.80Q40.45-0.84 40.45-3.19L40.45-3.19ZM51.75-1.08L50.86-1.78L51.47-2.48L52.55-1.64Q53.53-2.63 53.53-4.27L53.53-4.27Q53.34-7.64 50.53-7.83L50.53-7.83Q47.67-7.69 47.53-4.27L47.53-4.27Q47.67-0.94 50.53-0.80L50.53-0.80Q51.23-0.80 51.75-1.08L51.75-1.08ZM53.48-0.94L54.61-0.05L54.05 0.56L52.73-0.33Q51.89 0.14 50.53 0.14L50.53 0.14Q46.59 0 46.31-4.27L46.31-4.27Q46.55-8.72 50.53-8.81L50.53-8.81Q54.42-8.67 54.70-4.27L54.70-4.27Q54.66-2.20 53.48-0.94L53.48-0.94ZM56.25-8.58L57.42-8.58L57.42 0L56.25 0L56.25-8.58ZM65.06 0L64.22-2.48L60.75-2.48L59.86 0L58.69 0L61.92-8.58L63.23-8.58L66.33 0L65.06 0ZM62.48-7.31L61.13-3.52L63.80-3.52L62.53-7.31L62.48-7.31ZM68.77-8.58L73.08-1.64L73.08-8.58L74.20-8.58L74.20 0L72.89 0L68.53-6.94L68.48-6.94L68.48 0L67.36 0L67.36-8.58L68.77-8.58ZM82.41-3.61L79.78-3.61L79.78-4.59L83.53-4.59L83.53 0L82.78 0L82.50-1.08Q81.52 0.09 79.69 0.14L79.69 0.14Q77.95 0.14 77.02-0.75L77.02-0.75Q75.61-2.06 75.66-4.36L75.66-4.36Q75.98-8.63 79.73-8.81L79.73-8.81Q82.92-8.63 83.39-6L83.39-6L82.27-6Q81.80-7.78 79.69-7.83L79.69-7.83Q77.02-7.64 76.88-4.31L76.88-4.31Q76.88-0.75 79.73-0.75L79.73-0.75Q80.77-0.75 81.52-1.31L81.52-1.31Q82.45-2.06 82.41-3.61L82.41-3.61ZM85.31-8.58L86.48-8.58L86.48-1.03L90.84-1.03L90.84 0L85.31 0L85.31-8.58ZM98.77-4.27L98.77-4.27Q98.58-7.64 95.77-7.83L95.77-7.83Q92.91-7.69 92.77-4.27L92.77-4.27Q92.91-0.94 95.77-0.80L95.77-0.80Q98.58-0.98 98.77-4.27ZM99.94-4.27L99.94-4.27Q99.66 0 95.77 0.14L95.77 0.14Q91.83 0 91.55-4.27L91.55-4.27Q91.78-8.72 95.77-8.81L95.77-8.81Q99.66-8.67 99.94-4.27ZM102.70-8.58L107.02-1.64L107.02-8.58L108.14-8.58L108.14 0L106.83 0L102.47-6.94L102.42-6.94L102.42 0L101.30 0L101.30-8.58L102.70-8.58ZM116.34-3.61L113.72-3.61L113.72-4.59L117.47-4.59L117.47 0L116.72 0L116.44-1.08Q115.45 0.09 113.63 0.14L113.63 0.14Q111.89 0.14 110.95-0.75L110.95-0.75Q109.55-2.06 109.59-4.36L109.59-4.36Q109.92-8.63 113.67-8.81L113.67-8.81Q116.86-8.63 117.33-6L117.33-6L116.20-6Q115.73-7.78 113.63-7.83L113.63-7.83Q110.95-7.64 110.81-4.31L110.81-4.31Q110.81-0.75 113.67-0.75L113.67-0.75Q114.70-0.75 115.45-1.31L115.45-1.31Q116.39-2.06 116.34-3.61L116.34-3.61Z" transform="translate(-0.5609879032258065, 8.8125)"></path></g></g></g></g></g><defs v-gra="od"></defs></svg>